<?xml version="1.0" encoding="UTF-8"?>
<!DOCTYPE svg PUBLIC "-//W3C//DTD SVG 1.1//EN" "http://www.w3.org/Graphics/SVG/1.1/DTD/svg11.dtd">
<svg xmlns="http://www.w3.org/2000/svg" version="1.1" width="64px" height="64px" style="shape-rendering:geometricPrecision; text-rendering:geometricPrecision; image-rendering:optimizeQuality; fill-rule:evenodd; clip-rule:evenodd" xmlns:xlink="http://www.w3.org/1999/xlink">
<g><path style="opacity:1" fill="#0473bc" d="M -0.5,-0.5 C 20.8333,-0.5 42.1667,-0.5 63.5,-0.5C 63.5,20.8333 63.5,42.1667 63.5,63.5C 42.1667,63.5 20.8333,63.5 -0.5,63.5C -0.5,42.1667 -0.5,20.8333 -0.5,-0.5 Z"/></g>
<g><path style="opacity:1" fill="#e2e6e9" d="M 53.5,47.5 C 50.4625,44.9399 48.6292,41.6065 48,37.5C 46.3003,42.7173 42.8003,45.384 37.5,45.5C 35.4079,42.5266 33.9079,39.1932 33,35.5C 31.9914,37.0249 31.4914,38.6916 31.5,40.5C 29.863,42.4752 28.1964,44.4752 26.5,46.5C 24.4261,47.5139 22.4261,48.5139 20.5,49.5C 11.3178,50.5948 6.65111,46.5948 6.5,37.5C 6.63172,34.2033 8.29839,32.5367 11.5,32.5C 10.7343,36.0816 10.7343,39.5816 11.5,43C 15.3575,43.8099 19.0242,43.6433 22.5,42.5C 25.2313,40.9286 27.0646,38.5952 28,35.5C 30.1026,30.698 31.2692,25.698 31.5,20.5C 31.9693,17.0186 33.9693,14.6853 37.5,13.5C 38.086,13.7093 38.586,14.0426 39,14.5C 39.1461,19.3202 38.9794,24.1536 38.5,29C 38.3489,33.1123 39.0156,36.9457 40.5,40.5C 42.7082,39.1064 44.2082,37.1064 45,34.5C 46.8863,28.303 47.7196,21.9696 47.5,15.5C 49.1317,12.9274 51.2984,12.2608 54,13.5C 53.6017,22.8159 53.6017,32.1493 54,41.5C 56.0386,42.9783 56.8719,44.9783 56.5,47.5C 55.5,47.5 54.5,47.5 53.5,47.5 Z"/></g>
<g><path style="opacity:1" fill="#0e5384" d="M 31.5,20.5 C 31.2692,25.698 30.1026,30.698 28,35.5C 27.0646,38.5952 25.2313,40.9286 22.5,42.5C 25.3664,35.3983 27.533,28.065 29,20.5C 30.3919,18.1582 31.2252,18.1582 31.5,20.5 Z"/></g>
<g><path style="opacity:1" fill="#155381" d="M 37.5,45.5 C 37.9175,46.2216 38.5842,46.7216 39.5,47C 33.8576,48.8765 31.1909,46.7098 31.5,40.5C 31.4914,38.6916 31.9914,37.0249 33,35.5C 33.9079,39.1932 35.4079,42.5266 37.5,45.5 Z"/></g>
<g><path style="opacity:1" fill="#095488" d="M 47.5,15.5 C 47.7196,21.9696 46.8863,28.303 45,34.5C 44.2082,37.1064 42.7082,39.1064 40.5,40.5C 41.9931,32.9025 43.1598,25.2359 44,17.5C 44.8159,16.1772 45.9826,15.5106 47.5,15.5 Z"/></g>
<g><path style="opacity:1" fill="#0e5385" d="M 6.5,37.5 C 6.65111,46.5948 11.3178,50.5948 20.5,49.5C 19.0377,50.895 16.7044,51.895 13.5,52.5C 4.37236,50.5495 2.03903,45.5495 6.5,37.5 Z"/></g>
<g><path style="opacity:1" fill="#14629c" d="M 53.5,47.5 C 53.9153,49.9477 52.9153,51.2811 50.5,51.5C 47.6153,50.7576 45.1153,49.4243 43,47.5C 40.9211,48.4028 38.7544,49.0694 36.5,49.5C 33.3697,47.9412 30.0363,46.9412 26.5,46.5C 28.1964,44.4752 29.863,42.4752 31.5,40.5C 31.1909,46.7098 33.8576,48.8765 39.5,47C 38.5842,46.7216 37.9175,46.2216 37.5,45.5C 42.8003,45.384 46.3003,42.7173 48,37.5C 48.6292,41.6065 50.4625,44.9399 53.5,47.5 Z"/></g>
</svg>
