<?xml version="1.0" encoding="UTF-8"?>
<!DOCTYPE svg PUBLIC "-//W3C//DTD SVG 1.1//EN" "http://www.w3.org/Graphics/SVG/1.1/DTD/svg11.dtd">
<svg xmlns="http://www.w3.org/2000/svg" version="1.1" width="180px" height="180px" style="shape-rendering:geometricPrecision; text-rendering:geometricPrecision; image-rendering:optimizeQuality; fill-rule:evenodd; clip-rule:evenodd" xmlns:xlink="http://www.w3.org/1999/xlink">
<g><path style="opacity:1" fill="#0273bd" d="M -0.5,-0.5 C 59.5,-0.5 119.5,-0.5 179.5,-0.5C 179.5,59.5 179.5,119.5 179.5,179.5C 119.5,179.5 59.5,179.5 -0.5,179.5C -0.5,119.5 -0.5,59.5 -0.5,-0.5 Z"/></g>
<g><path style="opacity:1" fill="#eaecec" d="M 158.5,132.5 C 156.621,133.341 154.621,133.675 152.5,133.5C 151.833,133.5 151.167,133.5 150.5,133.5C 147.98,131.737 145.647,129.737 143.5,127.5C 141.989,123.815 140.489,120.148 139,116.5C 138.667,111.833 138.333,107.167 138,102.5C 134.809,108.221 131.642,113.888 128.5,119.5C 124.95,123.214 120.95,126.381 116.5,129C 114.19,129.497 111.857,129.663 109.5,129.5C 105.183,127.347 102.016,124.014 100,119.5C 97.1424,111.443 95.4757,103.109 95,94.5C 92.3805,101.53 89.8805,108.53 87.5,115.5C 85.8474,118.131 84.1807,120.797 82.5,123.5C 78.7672,127.24 74.7672,130.573 70.5,133.5C 66.845,135.377 63.1783,137.043 59.5,138.5C 43.9665,142.502 31.4665,138.169 22,125.5C 18.5244,118.457 17.6911,111.123 19.5,103.5C 21.1907,99.9915 23.524,96.8249 26.5,94C 31.1796,92.5001 33.5129,94.1668 33.5,99C 33.6527,102.159 32.8194,104.992 31,107.5C 30.3333,111.167 30.3333,114.833 31,118.5C 32.605,122.276 35.4384,124.276 39.5,124.5C 44.5,125.833 49.5,125.833 54.5,124.5C 57.9164,124.472 60.9164,123.472 63.5,121.5C 66.8908,120.471 69.5574,118.471 71.5,115.5C 73.4509,114.284 74.9509,112.618 76,110.5C 83.5008,93.5032 88.6675,75.8366 91.5,57.5C 91.9808,53.3991 92.9808,49.3991 94.5,45.5C 96.5368,44.1535 98.5368,42.8202 100.5,41.5C 104.269,39.8271 107.769,40.1605 111,42.5C 110.799,57.8279 110.299,73.1613 109.5,88.5C 109.501,93.3457 109.834,98.0124 110.5,102.5C 110.42,105.781 111.087,108.781 112.5,111.5C 112.328,112.492 112.662,113.158 113.5,113.5C 114.777,115.914 116.443,116.081 118.5,114C 120.058,111.948 121.392,109.781 122.5,107.5C 125.499,102.158 127.999,96.4918 130,90.5C 132.304,80.9515 133.804,71.2848 134.5,61.5C 135.49,55.69 135.823,49.69 135.5,43.5C 136.833,42.8333 137.833,41.8333 138.5,40.5C 140.928,38.7515 143.594,37.4181 146.5,36.5C 149.214,36.9404 151.38,38.2738 153,40.5C 151.668,63.47 151.002,86.47 151,109.5C 151.539,112.529 152.206,115.529 153,118.5C 155.333,120.833 157.667,123.167 160,125.5C 160.833,128.171 160.333,130.504 158.5,132.5 Z"/></g>
<g><path style="opacity:1" fill="#096eb2" d="M 100.5,41.5 C 98.5368,42.8202 96.5368,44.1535 94.5,45.5C 88.2938,45.1137 83.4605,47.7804 80,53.5C 76.6083,70.3998 72.2749,87.0665 67,103.5C 64.424,112.395 59.2574,119.228 51.5,124C 52.448,124.483 53.448,124.649 54.5,124.5C 49.5,125.833 44.5,125.833 39.5,124.5C 43.5102,123.107 47.5102,121.607 51.5,120C 54.7041,117.131 57.5374,113.965 60,110.5C 67.026,92.7303 72.026,74.397 75,55.5C 79.8938,43.8095 88.3938,39.1429 100.5,41.5 Z"/></g>
<g><path style="opacity:1" fill="#0667a8" d="M 138.5,40.5 C 137.833,41.8333 136.833,42.8333 135.5,43.5C 129.775,44.056 125.942,47.056 124,52.5C 122.727,62.8365 121.393,73.1698 120,83.5C 117.988,93.025 115.488,102.358 112.5,111.5C 111.087,108.781 110.42,105.781 110.5,102.5C 112.615,96.9877 114.448,91.321 116,85.5C 117.548,73.8009 119.214,62.1343 121,50.5C 124.34,42.258 130.173,38.9246 138.5,40.5 Z"/></g>
<g><path style="opacity:1" fill="#0c5d95" d="M 135.5,43.5 C 135.823,49.69 135.49,55.69 134.5,61.5C 134.5,58.1667 134.5,54.8333 134.5,51.5C 134.106,46.8327 132.272,46.4994 129,50.5C 128.333,51.8333 127.667,53.1667 127,54.5C 126.106,72.6339 122.773,90.3005 117,107.5C 116.074,109.692 114.907,111.692 113.5,113.5C 112.662,113.158 112.328,112.492 112.5,111.5C 115.488,102.358 117.988,93.025 120,83.5C 121.393,73.1698 122.727,62.8365 124,52.5C 125.942,47.056 129.775,44.056 135.5,43.5 Z"/></g>
<g><path style="opacity:1" fill="#0d639f" d="M 94.5,45.5 C 92.9808,49.3991 91.9808,53.3991 91.5,57.5C 91.5,55.8333 91.5,54.1667 91.5,52.5C 91.6567,51.1266 91.49,49.7932 91,48.5C 87.6667,50.5 85,53.1667 83,56.5C 79.0418,76.6672 73.3752,96.3338 66,115.5C 64.8589,117.609 63.3589,119.442 61.5,121C 62.0944,121.464 62.7611,121.631 63.5,121.5C 60.9164,123.472 57.9164,124.472 54.5,124.5C 53.448,124.649 52.448,124.483 51.5,124C 59.2574,119.228 64.424,112.395 67,103.5C 72.2749,87.0665 76.6083,70.3998 80,53.5C 83.4605,47.7804 88.2938,45.1137 94.5,45.5 Z"/></g>
<g><path style="opacity:1" fill="#044f81" d="M 134.5,51.5 C 132.016,53.1198 130.516,55.4531 130,58.5C 129.055,74.6729 126.221,90.5063 121.5,106C 121.57,106.765 121.903,107.265 122.5,107.5C 121.392,109.781 120.058,111.948 118.5,114C 116.443,116.081 114.777,115.914 113.5,113.5C 114.907,111.692 116.074,109.692 117,107.5C 122.773,90.3005 126.106,72.6339 127,54.5C 127.667,53.1667 128.333,51.8333 129,50.5C 132.272,46.4994 134.106,46.8327 134.5,51.5 Z"/></g>
<g><path style="opacity:1" fill="#04558b" d="M 91.5,52.5 C 88.1554,53.6799 85.9887,56.0132 85,59.5C 81.4923,78.1887 76.659,96.522 70.5,114.5C 70.6236,115.107 70.9569,115.44 71.5,115.5C 69.5574,118.471 66.8908,120.471 63.5,121.5C 62.7611,121.631 62.0944,121.464 61.5,121C 63.3589,119.442 64.8589,117.609 66,115.5C 73.3752,96.3338 79.0418,76.6672 83,56.5C 85,53.1667 87.6667,50.5 91,48.5C 91.49,49.7932 91.6567,51.1266 91.5,52.5 Z"/></g>
<g><path style="opacity:1" fill="#0c4a77" d="M 134.5,51.5 C 134.5,54.8333 134.5,58.1667 134.5,61.5C 133.804,71.2848 132.304,80.9515 130,90.5C 127.999,96.4918 125.499,102.158 122.5,107.5C 121.903,107.265 121.57,106.765 121.5,106C 126.221,90.5063 129.055,74.6729 130,58.5C 130.516,55.4531 132.016,53.1198 134.5,51.5 Z"/></g>
<g><path style="opacity:1" fill="#114e7c" d="M 91.5,52.5 C 91.5,54.1667 91.5,55.8333 91.5,57.5C 88.6675,75.8366 83.5008,93.5032 76,110.5C 74.9509,112.618 73.4509,114.284 71.5,115.5C 70.9569,115.44 70.6236,115.107 70.5,114.5C 76.659,96.522 81.4923,78.1887 85,59.5C 85.9887,56.0132 88.1554,53.6799 91.5,52.5 Z"/></g>
<g><path style="opacity:1" fill="#104d7b" d="M 109.5,129.5 C 109.611,130.117 109.944,130.617 110.5,131C 104.955,134.49 99.7886,133.99 95,129.5C 92.2204,124.938 89.7204,120.272 87.5,115.5C 89.8805,108.53 92.3805,101.53 95,94.5C 95.4757,103.109 97.1424,111.443 100,119.5C 102.016,124.014 105.183,127.347 109.5,129.5 Z"/></g>
<g><path style="opacity:1" fill="#045082" d="M 19.5,103.5 C 17.6911,111.123 18.5244,118.457 22,125.5C 31.4665,138.169 43.9665,142.502 59.5,138.5C 60.2389,138.369 60.9056,138.536 61.5,139C 48.8701,146.766 35.8701,147.433 22.5,141C 18.6393,138.304 15.306,135.137 12.5,131.5C 12.3335,122.161 12.5002,112.827 13,103.5C 15.4894,101.114 17.6561,101.114 19.5,103.5 Z"/></g>
<g><path style="opacity:1" fill="#115180" d="M 143.5,127.5 C 143.351,129.351 143.351,131.184 143.5,133C 142.448,134.119 141.281,134.619 140,134.5C 135.685,129.869 131.851,124.869 128.5,119.5C 131.642,113.888 134.809,108.221 138,102.5C 138.333,107.167 138.667,111.833 139,116.5C 140.489,120.148 141.989,123.815 143.5,127.5 Z"/></g>
<g><path style="opacity:1" fill="#0d5e96" d="M 87.5,115.5 C 89.7204,120.272 92.2204,124.938 95,129.5C 99.7886,133.99 104.955,134.49 110.5,131C 109.944,130.617 109.611,130.117 109.5,129.5C 111.857,129.663 114.19,129.497 116.5,129C 120.95,126.381 124.95,123.214 128.5,119.5C 131.851,124.869 135.685,129.869 140,134.5C 141.281,134.619 142.448,134.119 143.5,133C 143.351,131.184 143.351,129.351 143.5,127.5C 145.647,129.737 147.98,131.737 150.5,133.5C 149.669,139.928 146.002,142.428 139.5,141C 138.167,140.333 136.833,139.667 135.5,139C 131.997,134.466 128.164,130.299 124,126.5C 119.255,130.122 114.422,133.622 109.5,137C 99.0902,139.957 91.5902,136.457 87,126.5C 85.5913,125.219 84.0913,124.219 82.5,123.5C 84.1807,120.797 85.8474,118.131 87.5,115.5 Z"/></g>
<g><path style="opacity:1" fill="#0368aa" d="M 82.5,123.5 C 84.0913,124.219 85.5913,125.219 87,126.5C 91.5902,136.457 99.0902,139.957 109.5,137C 114.422,133.622 119.255,130.122 124,126.5C 128.164,130.299 131.997,134.466 135.5,139C 136.833,139.667 138.167,140.333 139.5,141C 146.002,142.428 149.669,139.928 150.5,133.5C 151.167,133.5 151.833,133.5 152.5,133.5C 155.06,137.652 154.06,141.152 149.5,144C 143.774,146.325 138.44,145.658 133.5,142C 130.306,138.806 127.14,135.64 124,132.5C 120.115,134.863 116.281,137.363 112.5,140C 105.938,143.565 99.2716,143.232 92.5,139C 89.6195,135.783 86.4529,132.95 83,130.5C 78.9002,132.265 75.7335,135.099 73.5,139C 59.1958,151.595 42.8625,155.261 24.5,150C 20.1541,147.953 16.1541,145.453 12.5,142.5C 12.5,140.833 12.5,139.167 12.5,137.5C 32.8387,154.162 52.8387,153.162 72.5,134.5C 72.0431,133.702 71.3764,133.369 70.5,133.5C 74.7672,130.573 78.7672,127.24 82.5,123.5 Z"/></g>
<g><path style="opacity:1" fill="#0170b7" d="M 152.5,133.5 C 154.621,133.675 156.621,133.341 158.5,132.5C 159.574,143.124 154.574,149.124 143.5,150.5C 136.529,149.701 130.862,146.535 126.5,141C 121.855,138.968 117.855,139.968 114.5,144C 107.945,146.809 101.278,147.142 94.5,145C 90.6091,142.266 86.6091,139.766 82.5,137.5C 77.6679,141.492 72.6679,145.325 67.5,149C 49.1002,158.997 31.1002,158.997 13.5,149C 12.5769,146.959 12.2436,144.792 12.5,142.5C 16.1541,145.453 20.1541,147.953 24.5,150C 42.8625,155.261 59.1958,151.595 73.5,139C 75.7335,135.099 78.9002,132.265 83,130.5C 86.4529,132.95 89.6195,135.783 92.5,139C 99.2716,143.232 105.938,143.565 112.5,140C 116.281,137.363 120.115,134.863 124,132.5C 127.14,135.64 130.306,138.806 133.5,142C 138.44,145.658 143.774,146.325 149.5,144C 154.06,141.152 155.06,137.652 152.5,133.5 Z"/></g>
<g><path style="opacity:1" fill="#055d98" d="M 12.5,131.5 C 15.306,135.137 18.6393,138.304 22.5,141C 35.8701,147.433 48.8701,146.766 61.5,139C 60.9056,138.536 60.2389,138.369 59.5,138.5C 63.1783,137.043 66.845,135.377 70.5,133.5C 71.3764,133.369 72.0431,133.702 72.5,134.5C 52.8387,153.162 32.8387,154.162 12.5,137.5C 12.5,135.5 12.5,133.5 12.5,131.5 Z"/></g>
</svg>
